P2
# PGM-File gespeichert mit KUPL
  21  33
    255
  62  91  103  157  178  181  132  91  70  55  27  32  22  25  23  23  16  27
  11  8  13
  56  93  98  120  191  198  132  95  84  45  56  27  42  15  28  25  32  22  16
  14  16
  50  67  93  131  166  200  146  106  83  67  42  33  38  35  19  20  20  10
  20  23  21
  31  50  91  109  120  159  147  115  75  63  50  35  38  40  32  32  23  21
  21  15  15
  31  30  75  80  120  138  141  106  117  74  63  57  42  38  30  17  30  19
  19  23  16
  26  50  49  55  104  107  113  115  115  103  66  71  43  46  34  28  33  22
  23  19  10
  24  29  38  46  64  89  104  116  148  142  104  60  52  41  31  33  28  21
  20  17  23
  26  28  32  48  73  61  118  144  166  149  130  107  73  55  46  36  24  33
  25  18  17
  21  26  33  30  54  71  114  130  145  219  169  145  107  68  49  42  27  25
  24  25  16
  24  24  32  36  42  53  93  146  186  211  188  163  112  70  68  45  36  29
  25  20  21
  11  13  21  25  34  53  71  108  159  209  209  144  119  111  75  52  31  28
  18  15  16
  17  20  25  35  30  50  68  90  128  165  177  143  131  126  72  64  44  49
  34  19  12
  22  22  15  31  27  40  52  75  108  138  149  130  121  87  87  64  41  41
  24  27  22
  21  26  23  25  25  29  42  59  93  137  161  136  109  101  78  67  53  56
  30  30  17
  29  24  23  21  20  25  46  56  69  102  126  126  108  103  98  68  51  33
  27  25  24
  29  32  21  25  35  32  34  50  61  99  114  117  112  104  88  64  45  37  33
  27  24
  47  25  21  23  19  26  41  58  67  89  135  111  130  114  76  66  50  47  40
  26  19
  30  27  12  23  15  21  27  49  84  118  160  129  143  97  76  73  46  29  34
  28  21
  21  27  13  21  16  24  22  57  88  111  166  180  124  99  87  49  53  41  33
  33  30
  25  19  21  14  14  23  26  51  76  133  179  152  128  113  95  67  51  38
  28  30  28
  17  12  19  8  8  15  20  53  95  129  164  162  146  97  78  68  57  31  27
  37  27
  26  20  17  19  11  15  27  40  62  123  152  133  125  104  73  59  44  41
  31  30  33
  18  16  13  15  8  6  23  37  64  108  128  99  97  87  68  56  54  43  26  28
  29
  16  17  24  13  14  14  11  36  51  74  104  83  88  87  68  59  47  39  27
  24  38
  13  17  14  16  12  14  21  17  49  55  67  60  67  75  52  68  40  39  32  39
  36
  18  17  17  18  11  17  15  18  22  28  57  60  62  57  61  60  40  41  32  34
  27
  11  21  18  18  18  24  6  13  23  29  39  43  45  53  57  52  43  44  41  30
  38
  18  12  19  20  19  16  18  15  13  21  23  25  33  50  50  60  42  33  34  44
  39
  10  20  16  15  15  28  11  20  18  24  26  30  41  28  44  59  60  43  44  40
  36
  15  8  13  21  14  19  27  18  16  15  25  19  16  42  38  35  57  55  39  53
  44
  15  25  15  12  20  19  16  12  21  16  24  30  24  25  45  53  58  51  53  38
  54
  23  15  22  11  16  16  16  15  13  21  21  32  20  26  29  43  64  62  45  54
  44
  21  13  19  17  15  11  15  15  15  23  17  27  24  26  28  54  80  77  57  57
  65
